<?xml version="1.0" encoding="UTF-8"?>
<svg xmlns="http://www.w3.org/2000/svg" version="1.1" viewBox="0 0 396.2 334.6">
  <defs>
    <style>
      .cls-1 {
        fill: #020202;
      }
    </style>
  </defs>
  <!-- Generator: Adobe Illustrator 28.7.5, SVG Export Plug-In . SVG Version: 1.2.0 Build 176)  -->
  <g>
    <g id="Layer_1">
      <g>
        <path class="cls-1" d="M274.2,308.7c-1-12.4-1.8-24.4-2.9-36.4-1.1-12.6-2.2-25.1-3.6-37.6-.7-6.7,1.6-11.8,7-15.8,7.5-5.5,14.9-11.3,22.4-16.9,2.5-1.8,3.2-4.2,3.5-7,0-.8.2-1.6.2-2.4,0-.5-.2-1.1-.5-1.4-6.9-7-13.8-14-20.8-21-.4-.4-1.4-.6-2-.4-7,2-13.9,4.2-20.9,6.3-10,2.9-20,5.8-29.9,8.7-1.1.3-2.1.6-3.1,1.1-2.4,1.1-3.8,2.9-4.1,5.5-.1,1.4-.2,2.8-.2,4.2,0,15,.1,30.1.3,45.1,0,3.6-1.2,6.3-4.6,7.9-.7.3-1.3,1-1.9,1.5-4.7,4.3-10,5.5-15.8,2.9-3.7-1.7-7.2-3.9-10.7-6-1.6-1-2-2.8-2-4.6,0-4.7-.1-9.4-.2-14,0-12.2,0-24.4-.1-36.6,0-3.3-.9-4.7-4.1-5.6-16.7-4.9-33.4-9.7-50.1-14.5-3.2-.9-6.4-1.9-9.6-3-.8-.3-1.3-.2-2,.5-4.9,5-9.9,9.9-14.8,14.9-.4.5-.7,1.3-.7,1.9.3,3.4.7,6.8,1,10.2.3,2.9,1.6,5.2,3.9,6.9,7.7,6,15.4,11.9,23.2,17.7,3.8,2.8,5.3,6.4,4.8,11.1-.9,8.5-1.6,17-2.3,25.5-.7,8-1.3,15.9-2,23.9-.5,6.6-1,13.2-1.6,19.8-.2,2.6-.8,5.1-1.2,7.9-4-3.5-7.7-6.8-11.5-10.2-10.5-9.3-20.9-18.6-31.4-27.8-1.6-1.4-2.3-2.9-2.5-5-.8-13.5-1.8-27.1-2.6-40.6-.4-6.8-.8-13.6-1.2-20.3-11.7.6-23.2.2-34.8.1-4.7,0-9.3.2-14,.2-6.7,0-13.4,0-20,0-1.3,0-2.6-.2-3.8-.8-2.8-1.4-3.6-4.6-1.6-7,2.5-3.1,5.2-6,7.9-8.9,22.1-22.3,44.3-44.6,66.5-66.8,37.7-37.8,75.5-75.6,113.2-113.3,2.9-2.9,7-3.2,10.2-.7.4.3.8.7,1.1,1,19.6,19.6,39.2,39.2,58.7,58.8,7,7,13.9,14,20.8,21,.3.3.6.6,1.2,1.1v-1.7c0-5.1,0-10.3,0-15.4,0-5,1.4-6.4,6.5-6.4,9.5,0,18.9,0,28.4,0,.9,0,1.8.1,2.7.4,2.9.9,3.7,2,3.9,5.2,0,.4,0,.8,0,1.2,0,19,0,37.9,0,56.9,0,1,.3,1.8,1,2.5,13.1,13.1,26.1,26.2,39.2,39.3,7.4,7.4,14.7,14.9,22,22.3.4.4.8.9,1.2,1.3,1.8,2,2.4,4.2,1.4,6.8-.9,2.5-3,2.8-5.2,2.8-7.1.1-14.3.3-21.4.3-6.6,0-13.3-.2-19.9-.2-6.6,0-13.2,0-19.8,0-.1.7-.2,1-.3,1.4-.8,12.4-1.7,24.8-2.5,37.1-.5,7.4-1,14.8-1.5,22.1-.1,2.1-1.1,3.7-2.6,5.1-13.7,12.2-27.5,24.5-41.2,36.7-.6.5-1.5.8-2.5,1.2ZM128.6,141.6c-.1,2.7-.3,5.3-.4,8,18.7,5.4,37.3,10.8,56.2,16.3,0-2.6,0-4.9,0-7.2,0-1-.3-1.5-1.3-1.7-13.9-3.8-27.7-7.8-41.5-11.7-4.2-1.2-8.5-2.4-12.9-3.6ZM275.2,141.8c-9.4,2.5-18.4,5-27.5,7.5-9,2.4-18,4.9-27,7.3-.4.1-1.1.6-1.1.9,0,2.6,0,5.2,0,7.9.4,0,.7-.2,1-.2,10.3-2.9,20.6-5.7,31-8.6,7.5-2.1,15-4.2,22.6-6.3.5-.1,1.3-.7,1.4-1,0-2.4-.1-4.8-.3-7.4ZM184.3,143.6c0-2.6,0-5,0-7.3,0-1-.4-1.4-1.3-1.6-15.7-4.4-31.3-8.8-47-13.2-2.1-.6-4.1-1.1-6.3-1.7-.2,2.8-.3,5.3-.4,7.9,18.3,5.3,36.5,10.6,55,15.9ZM219.6,134.7v8.5c.5-.1.9-.2,1.3-.3,4.6-1.3,9.3-2.6,13.9-3.9,12.9-3.6,25.8-7.2,38.6-10.8.4-.1,1.1-.5,1.1-.8,0-2.4-.1-4.9-.2-7.5-18.4,5-36.5,9.9-54.6,14.8Z"/>
        <path class="cls-1" d="M153,328.8c-1.1-1-2.2-1.8-3.2-2.7-3-2.6-5.9-5.3-9-7.8-1.5-1.3-2.1-2.8-1.9-4.7.4-4.6.9-9.2,1.3-13.8.5-4.8.9-9.6,1.4-14.4.6-5.9,1.1-11.9,1.7-17.8.4-4.7.9-9.4,1.3-14.1.7-6.9,1.3-13.8,2.2-20.6.5-3.9,2.8-6.9,6.2-8.9,5.9-3.5,11.8-7,17.7-10.5.4-.3.8-.5,1.5-.9.1,2,.3,3.8.4,5.5.4,9.3.8,18.6,1.2,27.9.1,2.7,1.2,4.9,3.7,6.1,7.2,3.9,14.4,7.7,21.6,11.5,1.7.9,3.6.9,5.3,0,7.7-4.1,15.4-8.1,23.1-12.2,1.6-.8,2.2-2.4,2.4-4,.3-3,.5-6,.6-9,.2-6.9.4-13.9.7-20.8,0-1.5.3-3.1.4-4.8.6.3,1,.5,1.4.7,6.8,4.1,13.6,8.3,20.5,12.3,2.4,1.4,3.3,3.2,3.5,5.8.9,9.3,1.8,18.7,2.7,28,.7,7.9,1.4,15.8,2.2,23.7.7,7.7,1.6,15.5,2.3,23.2.3,2.7.6,5.5.3,8.2-.1,1.4-1,3.1-2.1,4.1-3.8,3.6-7.7,7-11.9,10.7-.9-1.5-2.1-2.9-2.8-4.5-4.9-11.4-9.7-22.8-14.5-34.1-.7-1.6-1.5-3.2-2.5-4.6-2.1-3-5.1-4.7-8.8-4.7-14.2-.1-28.3-.2-42.5-.3-2.7,0-4.2,1.9-5.3,4.1-3.4,6.8-6.7,13.7-10,20.6-3.5,7.2-7,14.4-10.5,21.6-.2.4-.4.7-.8,1.3Z"/>
        <path class="cls-1" d="M241.6,330.8h-78.9c.1-.4.2-.8.4-1.1,5.7-11.2,11.5-22.4,17.1-33.6,1.6-3.2,3.8-4.7,7.5-4.6,10.2.1,20.4,0,30.6,0,2.5,0,4.3.9,5.5,3.4,5.6,11.5,11.4,22.8,17.1,34.3.2.5.4,1,.7,1.7Z"/>
        <path class="cls-1" d="M121.9,194.7c4.2,1,8.3,1.9,12.4,2.8,9.3,2.1,18.7,4.3,28,6.4,1.2.3,1.8.8,2,1.9.2,1.2,0,2.1-1.1,2.7-1,.6-2.2,1.1-3.2,1.6-4.2,1.8-8.4,3.6-12.5,5.5-2.2,1-4.2.9-6.3-.3-5.7-3.3-11.5-6.4-17.2-9.6-1.4-.7-2.1-1.6-2-3.3.1-2.5,0-5,0-7.7Z"/>
        <path class="cls-1" d="M281.6,194.8c0,2.9,0,5.8,0,8.7,0,.6-.7,1.4-1.2,1.7-6.3,3.6-12.7,7.1-19.1,10.6-1.4.7-2.9.7-4.3,0-5.1-2.2-10.1-4.4-15.2-6.6-2.4-1.1-3.1-2.3-2.2-4.1.2-.5.8-1,1.2-1.1,13.6-3.1,27.1-6.2,40.7-9.3,0,0,0,0,.2,0Z"/>
      </g>
    </g>
  </g>
</svg>