<?xml version="1.0" encoding="utf-8"?>
<!-- Generator: Adobe Illustrator 16.0.0, SVG Export Plug-In . SVG Version: 6.00 Build 0)  -->
<!DOCTYPE svg PUBLIC "-//W3C//DTD SVG 1.1//EN" "http://www.w3.org/Graphics/SVG/1.1/DTD/svg11.dtd">
<svg version="1.1" id="Layer_1" xmlns="http://www.w3.org/2000/svg" xmlns:xlink="http://www.w3.org/1999/xlink" x="0px" y="0px"
	 width="595.28px" height="144.286px" viewBox="0 0 595.28 144.286" enable-background="new 0 0 595.28 144.286"
	 xml:space="preserve">
<polygon fill="#FFFFFF" points="589.425,8.522 544.162,8.522 523.428,33.515 510.377,8.522 456.722,8.522 489.794,74.062 
	438.546,135.83 485.357,135.83 507.366,108.91 520.96,135.83 576.887,135.83 541.194,67.531 "/>
<g>
	<g>
		<path fill="#FFFFFF" d="M149.841,6.042c-17.889,1.172-47.361,4.555-47.473,4.601C72.626,14.773,73.224,32.615,73.771,35.53
			c0.549,2.903,1.476,7.598,1.476,7.598l63.209-6.081c22.781-3.487,22.847,10.857,22.921,11.036l-54.472,6.189
			c-24.41,3.328-41.258,23.971-37.892,46.839c3.373,22.878,28.935,40.047,53.887,37.091l44.614-5.386
			c0.021,0.264,2.501,4.492,10.247,4.492c4.832,0,30.684-0.013,30.684-0.013l0.066-66.075C208.634,33.101,194,2.896,149.841,6.042z
			 M151.875,103.727C151.83,103.781,151.875,103.727,151.875,103.727l-21.159,2.719c-8.703,0.922-16.909-3.953-18.019-11.193
			c-1.115-7.226,5.032-13.841,13.726-14.761l37.509-4.447c0.179,3.416,0.435,7.59,0.734,12.276c0.023,0.291-0.043,0.632-0.181,1
			C164.175,95.789,159.038,102.654,151.875,103.727z"/>
	</g>
	<g>
		<g>
			<path fill="#FFFFFF" d="M8.672,50.274V67.37c0,0,1.072,54.767,3.582,64.972c1.078,1.706,2.157,5.218,8.992,5.218
				c4.262,0,27.692-0.017,27.692-0.017V67.37V46.338L8.672,50.274z"/>
		</g>
		<path fill="#FFFFFF" d="M48.938,32.632V5.828c0,0-23.431-0.012-27.692-0.012c-6.835,0-7.914,3.498-8.992,5.195
			c-0.95,3.865-2.78,14.708-3.333,25.92L48.938,32.632z"/>
	</g>
	<g>
		<path fill="#FFFFFF" d="M430.312,36.527h-0.019c0,0.006,0.002,0.012,0.002,0.019L430.312,36.527z"/>
		<path fill="#FFFFFF" d="M426.978,132.325c2.508-10.249,3.585-65.237,3.585-65.237V66.85v-2.066
			c0-35.682-15.306-54.781-40.266-58.285c-2.813-0.394-5.743-0.601-8.791-0.601c-14.204,0-29.744,4.978-41.037,17.117
			C332.7,11.841,320.312,5.898,304.652,5.898c-10.442,0-22.711,3.276-32.17,11.895v-4.615c0-2.428-2.07-4.365-4.498-4.365h-35.696
			c-2.427,0-4.494,2.063-4.494,4.494v2.063V68.67V97.87v0.343v10.156v0.343v21.249v0.144v0.198v0.144v1.579v0.144v0.199v0.146
			c0,2.43,2.017,4.491,4.383,4.491h0.111h25.208h12.24c0.221-0.047,0.45-0.086,0.664-0.146c1.831-0.524,3.281-1.617,3.858-2.95
			c0.174-0.403,0.299-0.82,0.299-1.255v-2.091v-7.883v-12.896l0.191-11.571h-0.01l0.004-0.343l0.603-36.167
			c0.024-0.203,0.043-0.417,0.078-0.615c0.069-0.443,0.172-0.861,0.274-1.275c0.027-0.121,0.048-0.246,0.08-0.363
			c0.124-0.458,0.265-0.894,0.422-1.316c0.023-0.059,0.037-0.125,0.062-0.185c0.17-0.455,0.36-0.892,0.571-1.31
			c0.009-0.021,0.017-0.046,0.032-0.07c0.217-0.437,0.449-0.854,0.705-1.257l0.004-0.003c0.257-0.404,0.527-0.789,0.818-1.159
			c4.981-6.37,14.526-7.319,20.103-7.296c0.012,0,0.017,0,0.033,0c0.485,0.002,0.94,0.01,1.358,0.027
			c0.995,0.246,1.979,0.527,2.967,0.84l0.083,9.72l0.09,11.176v51.836v5.216c0,5.224,2.527,9.759,6.08,10.994
			c0.619,0.214,1.265,0.343,1.939,0.343h5.529h2.11h0.557h18.531h0.555h3.601h4.038c0.673,0,1.321-0.129,1.939-0.343
			c3.554-1.235,6.081-5.771,6.081-10.994v-5.216V68.615l0.091-11.176l0.084-9.72c0.983-0.313,1.97-0.594,2.962-0.84
			c0.418-0.017,0.873-0.025,1.363-0.027c0.013,0,0.021,0,0.021,0c5.584-0.022,15.13,0.927,20.114,7.296
			c0.29,0.37,0.562,0.755,0.82,1.159l0.002,0.003c0.256,0.404,0.485,0.82,0.707,1.257c0.01,0.024,0.018,0.049,0.027,0.07
			c0.21,0.418,0.401,0.854,0.575,1.31c0.021,0.06,0.037,0.125,0.057,0.185c0.16,0.422,0.3,0.859,0.425,1.316
			c0.03,0.117,0.052,0.242,0.08,0.363c0.102,0.414,0.202,0.832,0.276,1.275c0.035,0.199,0.053,0.412,0.076,0.615l0.607,36.51h-0.004
			l0.182,10.798l0.009,0.443v12.886v7.881v2.092c0,0.017,0.006,0.028,0.006,0.045v0.297c0,0.435,0.127,0.852,0.306,1.255
			c0.597,1.333,2.088,2.426,3.967,2.95c0.221,0.06,0.455,0.099,0.687,0.146h2.871h31.749
			C425.347,135.944,426.162,133.618,426.978,132.325z"/>
	</g>
</g>
</svg>
