<svg xmlns="http://www.w3.org/2000/svg" width="305" height="305" preserveAspectRatio="none" style="display: block;" version="1.1" viewBox="0 0 1220 1220"><path fill="rgb(255,255,255)" d="M0 0h1220v1220h-1220z"/><path fill="rgb(4,7,7)" d="m877.275 269.754.928.711c1.425 3.672.697 70.642.696 79.079l-.038 214.293c36.721-39.313 80.558-79.695 116.033-119.061 13.246-1.643 47.806-.761 62.076-.753l126.68.001c-21.79 19.459-45.16 42.892-66.15 63.409-37.48 36.685-75.18 73.15-113.09 109.391l185.19 287.079c-63.61.129-128.43.617-191.965-.069-6.871-12.017-16.687-26.692-24.167-38.562l-54.822-86.773c-9.738-15.409-21.267-32.758-30.288-48.425-14.407 11.64-39.009 37.251-53.243 51.094l-81.936 79.209c-15.017 14.501-29.496 29.184-44.947 43.261-28.479 1.829-76.018.36-106.136.347l.131-169.253c.002-9.916.146-19.83-.001-29.827-.563-38.222 6.552-91.784-37.58-109.671-27.959-11.332-68.798-7.267-90.488 14.899-28.052 28.669-24.421 71.438-24.308 108.367l.039 185.378-128.734.105.053-172.984c.004-26.455.662-53.369-.677-79.69-1.933-37.987-29.262-62.727-67.123-62.242-96.192 1.231-83.59 87.924-83.538 154.412l.02 160.399-128.735.106-.09-282.13c54.25-55.249 113.947-108.722 168.85-163.319 31.768-31.59 116.335-31.34 155.988-16.92 33.253 12.092 53.251 37.161 68.079 68.508 51.19-96.391 211.785-106.21 272.612-17.056 11.401 16.711 15.305 28.798 20.66 48.083 2.841-37.227-.702-80.984 1.215-118.955 7.813-11.634 42.812-46.516 53.88-57.62z"/></svg>