<svg xmlns="http://www.w3.org/2000/svg" viewBox="0 0 1025 1025">
<g fill="#4FAFA5" fill-rule="evenodd">
<path d="M 569.00 755.00 L 569.00 758.00 L 586.00 758.00 L 587.00 759.00 L 588.00 759.00 L 589.00 758.00 L 595.00 758.00 L 596.00 759.00 L 597.00 759.00 L 598.00 758.00 L 605.00 758.00 L 606.00 759.00 L 613.00 759.00 L 614.00 758.00 L 649.00 758.00 L 650.00 759.00 L 674.00 759.00 L 675.00 758.00 L 685.00 758.00 L 686.00 759.00 L 689.00 759.00 L 690.00 758.00 L 697.00 758.00 L 698.00 759.00 L 723.00 759.00 L 724.00 758.00 L 782.00 758.00 L 783.00 757.00 L 783.00 755.00 L 781.00 755.00 L 780.00 754.00 L 776.00 754.00 L 774.00 752.00 L 773.00 752.00 L 770.00 750.00 L 767.00 750.00 L 766.00 749.00 L 762.00 749.00 L 757.00 746.00 L 754.00 746.00 L 753.00 745.00 L 750.00 745.00 L 748.00 743.00 L 746.00 743.00 L 741.00 740.00 L 739.00 740.00 L 738.00 739.00 L 738.00 738.00 L 734.00 738.00 L 733.00 737.00 L 731.00 737.00 L 729.00 735.00 L 724.00 734.00 L 721.00 731.00 L 718.00 731.00 L 717.00 730.00 L 717.00 728.00 L 716.00 728.00 L 715.00 727.00 L 710.00 727.00 L 708.00 725.00 L 706.00 725.00 L 704.00 723.00 L 702.00 723.00 L 701.00 722.00 L 700.00 722.00 L 698.00 720.00 L 697.00 720.00 L 696.00 719.00 L 696.00 718.00 L 693.00 717.00 L 692.00 716.00 L 693.00 715.00 L 690.00 715.00 L 688.00 713.00 L 685.00 713.00 L 684.00 712.00 L 681.00 711.00 L 680.00 710.00 L 680.00 709.00 L 675.00 708.00 L 674.00 707.00 L 674.00 705.00 L 673.00 705.00 L 672.00 706.00 L 670.00 706.00 L 669.00 707.00 L 667.00 707.00 L 666.00 710.00 L 664.00 712.00 L 661.00 713.00 L 659.00 715.00 L 656.00 715.00 L 656.00 716.00 L 654.00 718.00 L 653.00 718.00 L 653.00 719.00 L 652.00 720.00 L 651.00 720.00 L 647.00 723.00 L 645.00 723.00 L 645.00 724.00 L 644.00 725.00 L 642.00 725.00 L 641.00 726.00 L 640.00 726.00 L 639.00 727.00 L 632.00 730.00 L 629.00 733.00 L 627.00 733.00 L 624.00 735.00 L 621.00 735.00 L 617.00 738.00 L 616.00 738.00 L 615.00 737.00 L 616.00 738.00 L 615.00 739.00 L 612.00 738.00 L 612.00 739.00 L 611.00 740.00 L 608.00 741.00 L 604.00 744.00 L 603.00 743.00 L 603.00 744.00 L 600.00 746.00 L 597.00 746.00 L 596.00 747.00 L 593.00 747.00 L 592.00 748.00 L 587.00 749.00 L 585.00 751.00 L 581.00 751.00 L 580.00 752.00 L 579.00 751.00 L 578.00 751.00 L 575.00 754.00 L 572.00 754.00 L 571.00 755.00 Z"/>
<path d="M 373.00 511.00 L 374.00 512.00 L 374.00 513.00 L 373.00 514.00 L 372.00 514.00 L 372.00 517.00 L 371.00 518.00 L 370.00 518.00 L 370.00 520.00 L 368.00 522.00 L 369.00 523.00 L 368.00 524.00 L 367.00 524.00 L 367.00 525.00 L 366.00 526.00 L 365.00 526.00 L 365.00 528.00 L 361.00 534.00 L 362.00 535.00 L 360.00 537.00 L 360.00 540.00 L 358.00 542.00 L 358.00 544.00 L 357.00 545.00 L 357.00 550.00 L 356.00 551.00 L 356.00 554.00 L 355.00 555.00 L 355.00 561.00 L 354.00 562.00 L 354.00 575.00 L 353.00 576.00 L 354.00 577.00 L 354.00 594.00 L 355.00 595.00 L 355.00 602.00 L 356.00 603.00 L 356.00 608.00 L 358.00 610.00 L 358.00 613.00 L 360.00 615.00 L 360.00 621.00 L 363.00 625.00 L 364.00 630.00 L 366.00 632.00 L 366.00 634.00 L 368.00 636.00 L 368.00 637.00 L 371.00 642.00 L 372.00 647.00 L 378.00 652.00 L 378.00 654.00 L 380.00 656.00 L 380.00 657.00 L 384.00 661.00 L 384.00 662.00 L 385.00 662.00 L 386.00 663.00 L 386.00 664.00 L 389.00 666.00 L 388.00 669.00 L 389.00 669.00 L 390.00 668.00 L 391.00 669.00 L 391.00 670.00 L 398.00 676.00 L 398.00 678.00 L 399.00 678.00 L 402.00 681.00 L 403.00 681.00 L 410.00 688.00 L 411.00 688.00 L 413.00 690.00 L 415.00 690.00 L 417.00 692.00 L 419.00 692.00 L 422.00 695.00 L 422.00 696.00 L 424.00 696.00 L 425.00 697.00 L 428.00 697.00 L 431.00 701.00 L 434.00 701.00 L 436.00 703.00 L 437.00 703.00 L 442.00 706.00 L 444.00 706.00 L 448.00 709.00 L 453.00 710.00 L 456.00 712.00 L 457.00 711.00 L 459.00 713.00 L 461.00 713.00 L 462.00 714.00 L 462.00 715.00 L 463.00 714.00 L 464.00 714.00 L 467.00 716.00 L 471.00 716.00 L 472.00 717.00 L 477.00 717.00 L 479.00 719.00 L 485.00 719.00 L 486.00 720.00 L 488.00 720.00 L 489.00 721.00 L 497.00 721.00 L 498.00 722.00 L 510.00 722.00 L 511.00 723.00 L 536.00 723.00 L 537.00 722.00 L 551.00 722.00 L 552.00 721.00 L 558.00 721.00 L 559.00 720.00 L 564.00 720.00 L 565.00 719.00 L 570.00 719.00 L 571.00 718.00 L 573.00 718.00 L 574.00 717.00 L 577.00 717.00 L 578.00 716.00 L 581.00 716.00 L 582.00 715.00 L 583.00 716.00 L 585.00 716.00 L 586.00 715.00 L 589.00 715.00 L 589.00 714.00 L 590.00 713.00 L 593.00 713.00 L 593.00 712.00 L 594.00 711.00 L 595.00 712.00 L 597.00 710.00 L 599.00 710.00 L 606.00 706.00 L 607.00 707.00 L 609.00 707.00 L 608.00 706.00 L 609.00 705.00 L 610.00 705.00 L 611.00 704.00 L 613.00 704.00 L 614.00 703.00 L 617.00 702.00 L 620.00 699.00 L 622.00 699.00 L 622.00 698.00 L 623.00 697.00 L 625.00 697.00 L 626.00 696.00 L 627.00 696.00 L 627.00 695.00 L 628.00 694.00 L 629.00 695.00 L 630.00 695.00 L 633.00 692.00 L 634.00 692.00 L 636.00 690.00 L 637.00 690.00 L 639.00 688.00 L 640.00 688.00 L 641.00 685.00 L 637.00 681.00 L 636.00 681.00 L 633.00 678.00 L 632.00 679.00 L 631.00 678.00 L 631.00 677.00 L 628.00 676.00 L 624.00 672.00 L 623.00 672.00 L 621.00 670.00 L 621.00 669.00 L 620.00 669.00 L 618.00 667.00 L 618.00 666.00 L 617.00 665.00 L 616.00 665.00 L 615.00 664.00 L 613.00 664.00 L 611.00 662.00 L 610.00 662.00 L 609.00 661.00 L 609.00 660.00 L 607.00 658.00 L 606.00 658.00 L 605.00 657.00 L 605.00 656.00 L 604.00 656.00 L 597.00 649.00 L 596.00 649.00 L 594.00 647.00 L 594.00 646.00 L 591.00 645.00 L 590.00 644.00 L 590.00 643.00 L 589.00 643.00 L 588.00 642.00 L 586.00 642.00 L 585.00 641.00 L 585.00 640.00 L 581.00 636.00 L 579.00 636.00 L 576.00 633.00 L 576.00 632.00 L 574.00 630.00 L 574.00 629.00 L 571.00 629.00 L 570.00 628.00 L 570.00 626.00 L 569.00 626.00 L 567.00 624.00 L 566.00 624.00 L 564.00 622.00 L 563.00 622.00 L 562.00 621.00 L 562.00 620.00 L 557.00 615.00 L 556.00 615.00 L 554.00 613.00 L 553.00 613.00 L 552.00 612.00 L 552.00 611.00 L 548.00 607.00 L 547.00 607.00 L 546.00 606.00 L 546.00 605.00 L 545.00 605.00 L 543.00 602.00 L 542.00 602.00 L 541.00 601.00 L 541.00 600.00 L 540.00 600.00 L 538.00 598.00 L 537.00 598.00 L 536.00 597.00 L 536.00 596.00 L 537.00 595.00 L 536.00 596.00 L 535.00 596.00 L 534.00 595.00 L 535.00 594.00 L 534.00 593.00 L 534.00 592.00 L 531.00 591.00 L 530.00 590.00 L 531.00 589.00 L 528.00 589.00 L 525.00 585.00 L 525.00 583.00 L 524.00 583.00 L 523.00 582.00 L 521.00 582.00 L 520.00 581.00 L 520.00 580.00 L 517.00 577.00 L 516.00 577.00 L 510.00 571.00 L 510.00 570.00 L 509.00 569.00 L 508.00 569.00 L 507.00 568.00 L 507.00 567.00 L 505.00 567.00 L 503.00 565.00 L 502.00 562.00 L 497.00 557.00 L 496.00 557.00 L 495.00 556.00 L 495.00 555.00 L 492.00 552.00 L 491.00 552.00 L 487.00 549.00 L 487.00 548.00 L 483.00 543.00 L 482.00 543.00 L 478.00 540.00 L 478.00 539.00 L 474.00 535.00 L 475.00 534.00 L 473.00 534.00 L 469.00 531.00 L 469.00 530.00 L 467.00 528.00 L 467.00 527.00 L 466.00 526.00 L 465.00 526.00 L 462.00 523.00 L 462.00 522.00 L 459.00 519.00 L 459.00 518.00 L 458.00 517.00 L 456.00 517.00 L 452.00 513.00 L 452.00 511.00 L 451.00 510.00 L 449.00 510.00 L 448.00 509.00 L 447.00 506.00 L 446.00 506.00 L 445.00 505.00 L 445.00 503.00 L 442.00 502.00 L 437.00 497.00 L 437.00 496.00 L 436.00 495.00 L 435.00 495.00 L 434.00 494.00 L 434.00 493.00 L 433.00 492.00 L 432.00 492.00 L 426.00 486.00 L 425.00 483.00 L 424.00 483.00 L 422.00 481.00 L 422.00 479.00 L 421.00 480.00 L 420.00 479.00 L 417.00 479.00 L 414.00 481.00 L 411.00 481.00 L 409.00 483.00 L 408.00 483.00 L 404.00 487.00 L 399.00 489.00 L 394.00 494.00 L 393.00 494.00 L 389.00 497.00 L 388.00 497.00 L 388.00 498.00 L 383.00 503.00 L 383.00 504.00 L 380.00 507.00 L 380.00 508.00 L 379.00 509.00 L 378.00 508.00 L 377.00 508.00 L 376.00 509.00 L 376.00 511.00 L 375.00 512.00 L 374.00 512.00 Z"/>
<path d="M 376.00 509.00 L 377.00 508.00 L 378.00 508.00 L 379.00 509.00 L 378.00 510.00 L 377.00 510.00 Z"/>
<path d="M 381.00 303.00 L 331.00 303.00 L 330.00 302.00 L 326.00 302.00 L 325.00 303.00 L 316.00 303.00 L 315.00 304.00 L 313.00 304.00 L 310.00 306.00 L 309.00 305.00 L 304.00 308.00 L 302.00 308.00 L 297.00 313.00 L 296.00 313.00 L 296.00 315.00 L 294.00 317.00 L 294.00 319.00 L 290.00 324.00 L 290.00 326.00 L 291.00 327.00 L 289.00 329.00 L 289.00 334.00 L 287.00 336.00 L 288.00 337.00 L 288.00 338.00 L 286.00 341.00 L 286.00 345.00 L 285.00 346.00 L 285.00 351.00 L 282.00 356.00 L 282.00 362.00 L 281.00 363.00 L 281.00 365.00 L 280.00 366.00 L 280.00 369.00 L 279.00 370.00 L 279.00 372.00 L 278.00 373.00 L 276.00 373.00 L 276.00 374.00 L 278.00 376.00 L 277.00 377.00 L 277.00 379.00 L 275.00 381.00 L 275.00 387.00 L 274.00 388.00 L 274.00 391.00 L 272.00 393.00 L 272.00 399.00 L 271.00 400.00 L 271.00 403.00 L 270.00 404.00 L 270.00 407.00 L 269.00 408.00 L 269.00 411.00 L 268.00 412.00 L 268.00 414.00 L 266.00 417.00 L 266.00 422.00 L 265.00 423.00 L 265.00 427.00 L 263.00 430.00 L 263.00 433.00 L 262.00 434.00 L 262.00 437.00 L 261.00 438.00 L 261.00 441.00 L 260.00 442.00 L 260.00 445.00 L 259.00 446.00 L 259.00 450.00 L 257.00 453.00 L 257.00 459.00 L 256.00 460.00 L 256.00 462.00 L 253.00 467.00 L 252.00 467.00 L 251.00 466.00 L 251.00 465.00 L 250.00 464.00 L 250.00 461.00 L 248.00 459.00 L 248.00 455.00 L 247.00 454.00 L 247.00 451.00 L 246.00 450.00 L 246.00 446.00 L 245.00 445.00 L 245.00 442.00 L 244.00 441.00 L 244.00 437.00 L 243.00 436.00 L 243.00 433.00 L 242.00 432.00 L 242.00 428.00 L 241.00 427.00 L 241.00 424.00 L 240.00 423.00 L 241.00 422.00 L 241.00 420.00 L 240.00 419.00 L 240.00 417.00 L 239.00 416.00 L 239.00 414.00 L 238.00 413.00 L 238.00 412.00 L 239.00 411.00 L 238.00 411.00 L 237.00 410.00 L 237.00 407.00 L 236.00 406.00 L 236.00 403.00 L 235.00 403.00 L 234.00 402.00 L 234.00 397.00 L 233.00 396.00 L 233.00 391.00 L 232.00 390.00 L 232.00 387.00 L 231.00 386.00 L 231.00 383.00 L 230.00 382.00 L 230.00 378.00 L 229.00 377.00 L 229.00 374.00 L 228.00 373.00 L 228.00 372.00 L 229.00 371.00 L 228.00 370.00 L 229.00 369.00 L 227.00 367.00 L 227.00 361.00 L 225.00 359.00 L 225.00 356.00 L 224.00 355.00 L 224.00 353.00 L 222.00 350.00 L 223.00 347.00 L 222.00 346.00 L 222.00 344.00 L 221.00 343.00 L 221.00 340.00 L 220.00 339.00 L 220.00 336.00 L 219.00 335.00 L 219.00 331.00 L 218.00 330.00 L 218.00 329.00 L 217.00 328.00 L 217.00 326.00 L 216.00 325.00 L 216.00 319.00 L 215.00 318.00 L 215.00 312.00 L 213.00 310.00 L 214.00 307.00 L 210.00 303.00 L 80.00 303.00 L 79.00 304.00 L 79.00 306.00 L 78.00 307.00 L 78.00 311.00 L 77.00 312.00 L 77.00 316.00 L 76.00 317.00 L 76.00 322.00 L 75.00 323.00 L 75.00 327.00 L 74.00 328.00 L 74.00 333.00 L 73.00 334.00 L 73.00 338.00 L 72.00 339.00 L 72.00 340.00 L 71.00 341.00 L 71.00 343.00 L 70.00 344.00 L 71.00 345.00 L 71.00 347.00 L 70.00 348.00 L 70.00 353.00 L 68.00 356.00 L 68.00 362.00 L 67.00 363.00 L 67.00 366.00 L 66.00 367.00 L 66.00 371.00 L 65.00 372.00 L 65.00 377.00 L 64.00 378.00 L 64.00 384.00 L 62.00 387.00 L 62.00 394.00 L 61.00 395.00 L 61.00 402.00 L 59.00 404.00 L 59.00 409.00 L 58.00 410.00 L 58.00 414.00 L 56.00 416.00 L 56.00 421.00 L 55.00 422.00 L 56.00 423.00 L 56.00 425.00 L 55.00 426.00 L 55.00 429.00 L 54.00 430.00 L 54.00 432.00 L 53.00 433.00 L 53.00 438.00 L 52.00 439.00 L 52.00 443.00 L 51.00 444.00 L 51.00 447.00 L 50.00 448.00 L 50.00 454.00 L 49.00 455.00 L 49.00 458.00 L 48.00 459.00 L 48.00 463.00 L 46.00 465.00 L 46.00 466.00 L 47.00 467.00 L 47.00 470.00 L 46.00 471.00 L 46.00 474.00 L 45.00 475.00 L 45.00 478.00 L 44.00 479.00 L 44.00 486.00 L 42.00 489.00 L 42.00 493.00 L 40.00 495.00 L 40.00 496.00 L 41.00 497.00 L 41.00 499.00 L 40.00 500.00 L 40.00 505.00 L 39.00 506.00 L 39.00 511.00 L 37.00 514.00 L 38.00 515.00 L 38.00 517.00 L 37.00 518.00 L 37.00 523.00 L 36.00 524.00 L 36.00 529.00 L 35.00 530.00 L 35.00 535.00 L 33.00 537.00 L 33.00 542.00 L 32.00 543.00 L 32.00 548.00 L 30.00 551.00 L 30.00 556.00 L 28.00 559.00 L 29.00 560.00 L 29.00 563.00 L 28.00 564.00 L 28.00 568.00 L 27.00 569.00 L 27.00 574.00 L 26.00 575.00 L 26.00 580.00 L 25.00 581.00 L 25.00 585.00 L 24.00 586.00 L 24.00 590.00 L 23.00 591.00 L 23.00 596.00 L 22.00 597.00 L 22.00 599.00 L 21.00 600.00 L 21.00 608.00 L 19.00 611.00 L 19.00 616.00 L 18.00 617.00 L 18.00 621.00 L 16.00 623.00 L 16.00 631.00 L 15.00 632.00 L 15.00 635.00 L 14.00 636.00 L 14.00 641.00 L 13.00 642.00 L 13.00 647.00 L 12.00 648.00 L 12.00 657.00 L 11.00 658.00 L 11.00 660.00 L 10.00 661.00 L 10.00 665.00 L 9.00 666.00 L 8.00 666.00 L 8.00 670.00 L 7.00 671.00 L 7.00 674.00 L 6.00 675.00 L 5.00 675.00 L 6.00 676.00 L 6.00 682.00 L 5.00 683.00 L 5.00 686.00 L 4.00 687.00 L 4.00 696.00 L 3.00 697.00 L 3.00 699.00 L 2.00 700.00 L 2.00 704.00 L 1.00 705.00 L 1.00 708.00 L 0.00 709.00 L 0.00 719.00 L 1.00 720.00 L 2.00 720.00 L 3.00 721.00 L 11.00 721.00 L 12.00 720.00 L 48.00 720.00 L 49.00 721.00 L 63.00 721.00 L 64.00 720.00 L 108.00 720.00 L 109.00 721.00 L 119.00 721.00 L 120.00 720.00 L 122.00 720.00 L 122.00 716.00 L 124.00 713.00 L 124.00 710.00 L 125.00 709.00 L 125.00 707.00 L 124.00 706.00 L 125.00 705.00 L 125.00 703.00 L 126.00 702.00 L 126.00 691.00 L 127.00 690.00 L 127.00 685.00 L 128.00 684.00 L 128.00 676.00 L 129.00 675.00 L 129.00 672.00 L 130.00 671.00 L 130.00 669.00 L 129.00 668.00 L 129.00 667.00 L 130.00 666.00 L 130.00 659.00 L 132.00 656.00 L 132.00 655.00 L 131.00 654.00 L 131.00 651.00 L 132.00 650.00 L 132.00 642.00 L 133.00 641.00 L 133.00 635.00 L 134.00 634.00 L 134.00 629.00 L 135.00 628.00 L 135.00 619.00 L 136.00 618.00 L 136.00 613.00 L 137.00 612.00 L 136.00 611.00 L 138.00 609.00 L 138.00 606.00 L 139.00 605.00 L 139.00 602.00 L 140.00 601.00 L 140.00 599.00 L 139.00 598.00 L 139.00 593.00 L 140.00 592.00 L 140.00 586.00 L 141.00 585.00 L 141.00 576.00 L 142.00 575.00 L 142.00 573.00 L 143.00 572.00 L 142.00 571.00 L 142.00 570.00 L 143.00 569.00 L 143.00 565.00 L 144.00 564.00 L 144.00 559.00 L 145.00 558.00 L 145.00 550.00 L 146.00 549.00 L 146.00 542.00 L 147.00 541.00 L 147.00 536.00 L 148.00 535.00 L 148.00 528.00 L 149.00 527.00 L 149.00 520.00 L 150.00 519.00 L 150.00 513.00 L 151.00 512.00 L 151.00 508.00 L 152.00 507.00 L 152.00 503.00 L 154.00 501.00 L 156.00 503.00 L 156.00 507.00 L 159.00 511.00 L 159.00 515.00 L 162.00 520.00 L 162.00 522.00 L 165.00 527.00 L 165.00 529.00 L 167.00 531.00 L 167.00 534.00 L 168.00 535.00 L 168.00 536.00 L 170.00 539.00 L 170.00 541.00 L 171.00 542.00 L 170.00 543.00 L 173.00 546.00 L 173.00 548.00 L 176.00 552.00 L 176.00 556.00 L 177.00 557.00 L 178.00 562.00 L 179.00 563.00 L 179.00 564.00 L 182.00 566.00 L 183.00 571.00 L 187.00 578.00 L 187.00 580.00 L 191.00 587.00 L 191.00 589.00 L 196.00 595.00 L 196.00 597.00 L 199.00 601.00 L 199.00 605.00 L 200.00 606.00 L 201.00 609.00 L 207.00 615.00 L 209.00 621.00 L 212.00 624.00 L 215.00 631.00 L 217.00 633.00 L 217.00 635.00 L 218.00 635.00 L 219.00 636.00 L 219.00 638.00 L 220.00 639.00 L 220.00 640.00 L 225.00 645.00 L 225.00 646.00 L 226.00 647.00 L 227.00 650.00 L 229.00 652.00 L 229.00 653.00 L 230.00 653.00 L 232.00 655.00 L 232.00 657.00 L 236.00 661.00 L 235.00 662.00 L 235.00 663.00 L 236.00 662.00 L 237.00 662.00 L 238.00 663.00 L 238.00 664.00 L 243.00 669.00 L 243.00 670.00 L 247.00 674.00 L 248.00 674.00 L 249.00 675.00 L 249.00 677.00 L 250.00 678.00 L 250.00 679.00 L 253.00 682.00 L 253.00 683.00 L 255.00 683.00 L 258.00 686.00 L 259.00 689.00 L 260.00 689.00 L 262.00 691.00 L 263.00 691.00 L 269.00 697.00 L 271.00 697.00 L 274.00 700.00 L 274.00 701.00 L 275.00 701.00 L 276.00 702.00 L 276.00 703.00 L 277.00 703.00 L 281.00 706.00 L 284.00 707.00 L 285.00 708.00 L 285.00 709.00 L 290.00 711.00 L 292.00 713.00 L 295.00 714.00 L 297.00 716.00 L 300.00 717.00 L 302.00 719.00 L 304.00 719.00 L 308.00 722.00 L 311.00 722.00 L 312.00 723.00 L 316.00 723.00 L 316.00 721.00 L 315.00 721.00 L 310.00 716.00 L 309.00 717.00 L 308.00 716.00 L 308.00 715.00 L 307.00 715.00 L 305.00 713.00 L 305.00 712.00 L 299.00 707.00 L 299.00 705.00 L 297.00 705.00 L 296.00 704.00 L 296.00 703.00 L 295.00 703.00 L 294.00 702.00 L 294.00 701.00 L 291.00 699.00 L 290.00 696.00 L 289.00 696.00 L 288.00 695.00 L 288.00 692.00 L 285.00 689.00 L 284.00 689.00 L 283.00 688.00 L 283.00 687.00 L 281.00 685.00 L 281.00 683.00 L 280.00 683.00 L 279.00 682.00 L 279.00 681.00 L 277.00 679.00 L 275.00 674.00 L 273.00 672.00 L 273.00 669.00 L 269.00 663.00 L 269.00 661.00 L 268.00 660.00 L 268.00 657.00 L 266.00 654.00 L 266.00 652.00 L 265.00 651.00 L 265.00 648.00 L 264.00 647.00 L 264.00 644.00 L 263.00 643.00 L 263.00 637.00 L 262.00 636.00 L 262.00 624.00 L 261.00 623.00 L 261.00 616.00 L 262.00 615.00 L 262.00 603.00 L 264.00 600.00 L 264.00 594.00 L 266.00 592.00 L 265.00 591.00 L 265.00 590.00 L 268.00 585.00 L 268.00 583.00 L 269.00 582.00 L 269.00 579.00 L 270.00 578.00 L 270.00 576.00 L 271.00 575.00 L 271.00 574.00 L 274.00 571.00 L 274.00 569.00 L 275.00 568.00 L 275.00 567.00 L 274.00 566.00 L 276.00 564.00 L 277.00 561.00 L 280.00 558.00 L 280.00 557.00 L 281.00 556.00 L 281.00 553.00 L 282.00 552.00 L 283.00 549.00 L 284.00 548.00 L 285.00 548.00 L 286.00 547.00 L 286.00 546.00 L 289.00 543.00 L 290.00 543.00 L 289.00 542.00 L 289.00 541.00 L 302.00 527.00 L 302.00 526.00 L 306.00 523.00 L 306.00 521.00 L 309.00 518.00 L 311.00 518.00 L 314.00 515.00 L 314.00 514.00 L 315.00 513.00 L 316.00 513.00 L 316.00 512.00 L 318.00 510.00 L 319.00 510.00 L 321.00 508.00 L 322.00 508.00 L 323.00 507.00 L 323.00 506.00 L 328.00 501.00 L 329.00 501.00 L 333.00 496.00 L 334.00 497.00 L 335.00 497.00 L 342.00 490.00 L 343.00 490.00 L 350.00 484.00 L 352.00 484.00 L 354.00 482.00 L 355.00 482.00 L 355.00 481.00 L 356.00 480.00 L 357.00 480.00 L 362.00 476.00 L 364.00 476.00 L 367.00 473.00 L 369.00 473.00 L 371.00 471.00 L 373.00 471.00 L 373.00 470.00 L 374.00 469.00 L 375.00 469.00 L 375.00 468.00 L 376.00 467.00 L 378.00 467.00 L 379.00 466.00 L 384.00 465.00 L 385.00 464.00 L 388.00 463.00 L 388.00 462.00 L 389.00 461.00 L 392.00 460.00 L 396.00 457.00 L 397.00 458.00 L 398.00 458.00 L 398.00 457.00 L 399.00 456.00 L 400.00 457.00 L 400.00 455.00 L 401.00 454.00 L 399.00 451.00 L 399.00 448.00 L 398.00 448.00 L 397.00 447.00 L 397.00 446.00 L 393.00 442.00 L 393.00 441.00 L 391.00 438.00 L 391.00 436.00 L 390.00 435.00 L 390.00 434.00 L 386.00 430.00 L 387.00 429.00 L 387.00 427.00 L 386.00 426.00 L 384.00 421.00 L 382.00 421.00 L 381.00 420.00 L 381.00 418.00 L 380.00 417.00 L 379.00 412.00 L 375.00 406.00 L 375.00 403.00 L 376.00 402.00 L 375.00 403.00 L 374.00 402.00 L 374.00 398.00 L 373.00 398.00 L 372.00 397.00 L 373.00 396.00 L 372.00 395.00 L 372.00 393.00 L 371.00 392.00 L 371.00 387.00 L 369.00 385.00 L 369.00 381.00 L 368.00 380.00 L 368.00 375.00 L 367.00 374.00 L 367.00 354.00 L 368.00 353.00 L 368.00 345.00 L 369.00 344.00 L 369.00 339.00 L 371.00 337.00 L 371.00 334.00 L 372.00 333.00 L 372.00 330.00 L 374.00 328.00 L 374.00 324.00 L 375.00 323.00 L 375.00 321.00 L 376.00 320.00 L 376.00 319.00 L 379.00 316.00 L 379.00 314.00 L 380.00 313.00 L 380.00 310.00 L 383.00 305.00 Z"/>
<path d="M 457.00 306.00 L 457.00 310.00 L 456.00 311.00 L 456.00 313.00 L 455.00 314.00 L 455.00 316.00 L 454.00 317.00 L 454.00 318.00 L 455.00 319.00 L 454.00 320.00 L 454.00 326.00 L 453.00 327.00 L 453.00 336.00 L 454.00 337.00 L 454.00 344.00 L 455.00 345.00 L 455.00 348.00 L 456.00 349.00 L 456.00 354.00 L 458.00 356.00 L 458.00 360.00 L 459.00 361.00 L 459.00 365.00 L 460.00 366.00 L 461.00 369.00 L 464.00 372.00 L 466.00 377.00 L 469.00 379.00 L 469.00 380.00 L 470.00 381.00 L 470.00 383.00 L 471.00 384.00 L 471.00 386.00 L 472.00 386.00 L 473.00 387.00 L 473.00 388.00 L 476.00 391.00 L 476.00 392.00 L 477.00 392.00 L 478.00 393.00 L 480.00 398.00 L 481.00 398.00 L 482.00 399.00 L 482.00 400.00 L 485.00 403.00 L 485.00 404.00 L 486.00 404.00 L 487.00 405.00 L 487.00 406.00 L 489.00 408.00 L 489.00 409.00 L 493.00 413.00 L 494.00 416.00 L 496.00 418.00 L 497.00 418.00 L 503.00 424.00 L 503.00 425.00 L 508.00 430.00 L 508.00 431.00 L 510.00 433.00 L 511.00 433.00 L 512.00 434.00 L 512.00 435.00 L 513.00 435.00 L 514.00 436.00 L 514.00 437.00 L 520.00 443.00 L 520.00 444.00 L 521.00 444.00 L 522.00 445.00 L 522.00 446.00 L 523.00 447.00 L 524.00 447.00 L 525.00 448.00 L 525.00 449.00 L 526.00 449.00 L 527.00 450.00 L 527.00 451.00 L 531.00 455.00 L 531.00 456.00 L 533.00 458.00 L 534.00 458.00 L 536.00 460.00 L 536.00 461.00 L 538.00 463.00 L 539.00 463.00 L 544.00 468.00 L 545.00 471.00 L 548.00 474.00 L 549.00 474.00 L 555.00 480.00 L 555.00 482.00 L 556.00 482.00 L 559.00 485.00 L 560.00 485.00 L 561.00 486.00 L 561.00 487.00 L 567.00 493.00 L 567.00 494.00 L 572.00 499.00 L 573.00 499.00 L 576.00 502.00 L 577.00 502.00 L 578.00 503.00 L 578.00 505.00 L 585.00 512.00 L 586.00 512.00 L 593.00 519.00 L 593.00 520.00 L 597.00 524.00 L 598.00 524.00 L 602.00 528.00 L 602.00 529.00 L 608.00 535.00 L 608.00 537.00 L 611.00 537.00 L 612.00 538.00 L 613.00 538.00 L 614.00 539.00 L 614.00 540.00 L 615.00 540.00 L 617.00 542.00 L 618.00 545.00 L 621.00 548.00 L 623.00 548.00 L 624.00 549.00 L 624.00 550.00 L 625.00 550.00 L 627.00 552.00 L 627.00 553.00 L 630.00 556.00 L 630.00 557.00 L 633.00 560.00 L 634.00 560.00 L 638.00 563.00 L 638.00 564.00 L 645.00 571.00 L 644.00 572.00 L 646.00 572.00 L 648.00 574.00 L 649.00 574.00 L 653.00 578.00 L 653.00 579.00 L 652.00 580.00 L 653.00 579.00 L 654.00 580.00 L 655.00 580.00 L 658.00 584.00 L 661.00 585.00 L 662.00 586.00 L 662.00 587.00 L 669.00 594.00 L 669.00 595.00 L 672.00 596.00 L 673.00 597.00 L 673.00 598.00 L 674.00 598.00 L 677.00 601.00 L 678.00 601.00 L 679.00 602.00 L 679.00 604.00 L 681.00 606.00 L 684.00 607.00 L 686.00 609.00 L 686.00 610.00 L 687.00 610.00 L 689.00 612.00 L 689.00 613.00 L 690.00 613.00 L 691.00 614.00 L 691.00 615.00 L 700.00 623.00 L 703.00 623.00 L 703.00 622.00 L 707.00 618.00 L 707.00 617.00 L 708.00 616.00 L 711.00 609.00 L 715.00 605.00 L 715.00 602.00 L 717.00 599.00 L 717.00 597.00 L 718.00 596.00 L 718.00 594.00 L 719.00 593.00 L 719.00 590.00 L 723.00 583.00 L 722.00 582.00 L 722.00 580.00 L 723.00 579.00 L 723.00 575.00 L 724.00 574.00 L 724.00 570.00 L 725.00 569.00 L 725.00 563.00 L 726.00 562.00 L 727.00 563.00 L 726.00 562.00 L 726.00 552.00 L 727.00 551.00 L 726.00 550.00 L 726.00 546.00 L 727.00 545.00 L 727.00 544.00 L 726.00 545.00 L 725.00 544.00 L 725.00 539.00 L 724.00 538.00 L 723.00 533.00 L 722.00 532.00 L 719.00 525.00 L 718.00 525.00 L 717.00 524.00 L 717.00 521.00 L 711.00 515.00 L 709.00 515.00 L 706.00 512.00 L 705.00 512.00 L 704.00 511.00 L 704.00 509.00 L 703.00 510.00 L 701.00 510.00 L 698.00 508.00 L 693.00 507.00 L 688.00 504.00 L 682.00 504.00 L 681.00 503.00 L 678.00 504.00 L 677.00 503.00 L 676.00 503.00 L 675.00 502.00 L 673.00 502.00 L 672.00 501.00 L 671.00 501.00 L 670.00 502.00 L 669.00 502.00 L 668.00 501.00 L 652.00 501.00 L 651.00 500.00 L 651.00 499.00 L 654.00 497.00 L 658.00 497.00 L 661.00 495.00 L 662.00 496.00 L 663.00 496.00 L 664.00 495.00 L 667.00 495.00 L 667.00 494.00 L 668.00 493.00 L 675.00 493.00 L 676.00 492.00 L 683.00 492.00 L 684.00 491.00 L 688.00 491.00 L 689.00 490.00 L 733.00 490.00 L 734.00 491.00 L 742.00 491.00 L 743.00 492.00 L 749.00 492.00 L 750.00 493.00 L 750.00 494.00 L 751.00 493.00 L 756.00 493.00 L 757.00 492.00 L 758.00 493.00 L 765.00 493.00 L 766.00 494.00 L 767.00 493.00 L 768.00 493.00 L 769.00 494.00 L 772.00 495.00 L 773.00 496.00 L 773.00 497.00 L 773.00 496.00 L 774.00 495.00 L 777.00 495.00 L 777.00 493.00 L 778.00 492.00 L 778.00 419.00 L 779.00 418.00 L 779.00 413.00 L 778.00 412.00 L 778.00 403.00 L 779.00 402.00 L 779.00 400.00 L 781.00 397.00 L 847.00 397.00 L 848.00 398.00 L 852.00 398.00 L 853.00 399.00 L 855.00 399.00 L 856.00 398.00 L 858.00 398.00 L 859.00 399.00 L 860.00 398.00 L 861.00 398.00 L 862.00 399.00 L 865.00 399.00 L 866.00 400.00 L 869.00 400.00 L 872.00 402.00 L 875.00 402.00 L 878.00 404.00 L 881.00 404.00 L 882.00 405.00 L 882.00 406.00 L 883.00 406.00 L 884.00 407.00 L 884.00 408.00 L 885.00 407.00 L 886.00 408.00 L 886.00 409.00 L 887.00 409.00 L 888.00 410.00 L 888.00 411.00 L 889.00 411.00 L 891.00 413.00 L 892.00 413.00 L 895.00 416.00 L 895.00 417.00 L 896.00 418.00 L 896.00 420.00 L 897.00 420.00 L 899.00 422.00 L 899.00 423.00 L 902.00 428.00 L 902.00 430.00 L 903.00 431.00 L 903.00 435.00 L 906.00 440.00 L 906.00 458.00 L 905.00 459.00 L 905.00 461.00 L 904.00 462.00 L 904.00 465.00 L 903.00 466.00 L 903.00 468.00 L 902.00 469.00 L 902.00 471.00 L 901.00 472.00 L 901.00 476.00 L 900.00 477.00 L 899.00 480.00 L 897.00 482.00 L 896.00 482.00 L 895.00 485.00 L 892.00 488.00 L 890.00 488.00 L 886.00 492.00 L 885.00 491.00 L 886.00 492.00 L 879.00 498.00 L 877.00 498.00 L 873.00 501.00 L 870.00 501.00 L 869.00 502.00 L 864.00 502.00 L 862.00 504.00 L 853.00 504.00 L 852.00 505.00 L 832.00 505.00 L 831.00 506.00 L 827.00 506.00 L 826.00 505.00 L 801.00 505.00 L 800.00 506.00 L 798.00 506.00 L 797.00 505.00 L 796.00 505.00 L 794.00 507.00 L 794.00 515.00 L 793.00 516.00 L 793.00 523.00 L 791.00 526.00 L 791.00 534.00 L 790.00 535.00 L 790.00 540.00 L 788.00 543.00 L 788.00 545.00 L 789.00 546.00 L 789.00 547.00 L 788.00 548.00 L 788.00 550.00 L 787.00 551.00 L 787.00 553.00 L 786.00 554.00 L 786.00 558.00 L 784.00 560.00 L 784.00 562.00 L 782.00 564.00 L 782.00 568.00 L 781.00 569.00 L 781.00 572.00 L 777.00 578.00 L 777.00 581.00 L 772.00 590.00 L 772.00 592.00 L 769.00 595.00 L 768.00 595.00 L 768.00 597.00 L 766.00 599.00 L 766.00 602.00 L 765.00 603.00 L 764.00 603.00 L 765.00 604.00 L 762.00 607.00 L 762.00 609.00 L 760.00 611.00 L 760.00 612.00 L 753.00 619.00 L 753.00 622.00 L 752.00 623.00 L 752.00 624.00 L 751.00 625.00 L 750.00 625.00 L 749.00 628.00 L 748.00 629.00 L 747.00 629.00 L 747.00 630.00 L 743.00 633.00 L 743.00 635.00 L 741.00 637.00 L 741.00 638.00 L 740.00 639.00 L 739.00 639.00 L 738.00 638.00 L 738.00 641.00 L 735.00 645.00 L 735.00 646.00 L 733.00 648.00 L 733.00 651.00 L 734.00 651.00 L 735.00 652.00 L 735.00 654.00 L 738.00 657.00 L 739.00 657.00 L 741.00 659.00 L 742.00 659.00 L 746.00 662.00 L 747.00 662.00 L 748.00 663.00 L 749.00 666.00 L 750.00 665.00 L 751.00 666.00 L 752.00 666.00 L 756.00 671.00 L 758.00 671.00 L 760.00 673.00 L 763.00 674.00 L 764.00 675.00 L 764.00 676.00 L 767.00 679.00 L 770.00 679.00 L 771.00 680.00 L 771.00 681.00 L 772.00 681.00 L 780.00 688.00 L 781.00 688.00 L 783.00 690.00 L 784.00 690.00 L 786.00 692.00 L 787.00 692.00 L 793.00 697.00 L 796.00 697.00 L 797.00 698.00 L 797.00 699.00 L 799.00 699.00 L 802.00 702.00 L 803.00 702.00 L 804.00 703.00 L 804.00 704.00 L 807.00 705.00 L 813.00 710.00 L 815.00 710.00 L 816.00 711.00 L 816.00 712.00 L 817.00 712.00 L 818.00 711.00 L 819.00 712.00 L 819.00 713.00 L 820.00 713.00 L 822.00 715.00 L 822.00 716.00 L 825.00 716.00 L 830.00 719.00 L 833.00 719.00 L 833.00 718.00 L 834.00 717.00 L 834.00 711.00 L 835.00 710.00 L 835.00 709.00 L 834.00 708.00 L 834.00 608.00 L 839.00 605.00 L 840.00 605.00 L 841.00 606.00 L 842.00 606.00 L 843.00 605.00 L 871.00 605.00 L 872.00 604.00 L 882.00 604.00 L 883.00 603.00 L 885.00 603.00 L 886.00 602.00 L 895.00 602.00 L 896.00 601.00 L 902.00 601.00 L 903.00 600.00 L 907.00 600.00 L 908.00 599.00 L 910.00 599.00 L 911.00 598.00 L 915.00 598.00 L 916.00 597.00 L 921.00 596.00 L 924.00 594.00 L 926.00 594.00 L 927.00 593.00 L 929.00 593.00 L 930.00 592.00 L 931.00 593.00 L 932.00 592.00 L 937.00 590.00 L 939.00 588.00 L 941.00 588.00 L 942.00 587.00 L 943.00 587.00 L 945.00 585.00 L 950.00 584.00 L 952.00 582.00 L 955.00 583.00 L 955.00 581.00 L 956.00 580.00 L 958.00 580.00 L 959.00 579.00 L 960.00 579.00 L 961.00 578.00 L 961.00 577.00 L 965.00 574.00 L 966.00 574.00 L 968.00 571.00 L 969.00 571.00 L 971.00 569.00 L 972.00 569.00 L 976.00 565.00 L 977.00 566.00 L 976.00 565.00 L 978.00 563.00 L 979.00 563.00 L 979.00 562.00 L 983.00 558.00 L 984.00 558.00 L 984.00 557.00 L 988.00 553.00 L 988.00 552.00 L 993.00 548.00 L 993.00 546.00 L 994.00 545.00 L 995.00 545.00 L 995.00 544.00 L 996.00 543.00 L 997.00 543.00 L 997.00 542.00 L 1001.00 537.00 L 1001.00 535.00 L 1003.00 533.00 L 1006.00 526.00 L 1009.00 523.00 L 1009.00 520.00 L 1010.00 519.00 L 1010.00 518.00 L 1014.00 513.00 L 1013.00 510.00 L 1015.00 508.00 L 1015.00 505.00 L 1016.00 504.00 L 1016.00 502.00 L 1017.00 501.00 L 1017.00 499.00 L 1018.00 498.00 L 1018.00 492.00 L 1019.00 491.00 L 1019.00 489.00 L 1020.00 488.00 L 1020.00 487.00 L 1022.00 485.00 L 1022.00 479.00 L 1023.00 478.00 L 1023.00 475.00 L 1022.00 474.00 L 1023.00 473.00 L 1023.00 468.00 L 1024.00 467.00 L 1024.00 436.00 L 1023.00 435.00 L 1023.00 426.00 L 1022.00 425.00 L 1022.00 423.00 L 1023.00 422.00 L 1022.00 421.00 L 1022.00 419.00 L 1021.00 418.00 L 1021.00 417.00 L 1019.00 415.00 L 1019.00 410.00 L 1018.00 409.00 L 1018.00 404.00 L 1016.00 401.00 L 1016.00 398.00 L 1014.00 395.00 L 1014.00 392.00 L 1013.00 391.00 L 1014.00 390.00 L 1010.00 385.00 L 1010.00 384.00 L 1008.00 381.00 L 1008.00 379.00 L 1005.00 376.00 L 1005.00 374.00 L 1001.00 369.00 L 1001.00 367.00 L 1000.00 367.00 L 999.00 366.00 L 999.00 364.00 L 998.00 363.00 L 998.00 362.00 L 994.00 359.00 L 994.00 358.00 L 992.00 356.00 L 992.00 355.00 L 991.00 355.00 L 990.00 354.00 L 990.00 353.00 L 986.00 349.00 L 986.00 348.00 L 984.00 346.00 L 984.00 345.00 L 983.00 346.00 L 982.00 345.00 L 982.00 344.00 L 981.00 344.00 L 979.00 342.00 L 979.00 341.00 L 977.00 339.00 L 977.00 338.00 L 975.00 338.00 L 974.00 337.00 L 973.00 337.00 L 965.00 330.00 L 960.00 328.00 L 955.00 323.00 L 954.00 323.00 L 951.00 321.00 L 948.00 321.00 L 947.00 320.00 L 945.00 320.00 L 944.00 319.00 L 944.00 318.00 L 943.00 318.00 L 941.00 316.00 L 940.00 316.00 L 939.00 315.00 L 936.00 315.00 L 934.00 313.00 L 933.00 314.00 L 932.00 313.00 L 930.00 313.00 L 929.00 312.00 L 927.00 312.00 L 926.00 311.00 L 924.00 311.00 L 923.00 310.00 L 920.00 310.00 L 919.00 309.00 L 917.00 309.00 L 916.00 308.00 L 910.00 308.00 L 907.00 306.00 L 903.00 306.00 L 902.00 305.00 L 900.00 305.00 L 899.00 306.00 L 898.00 305.00 L 890.00 305.00 L 889.00 304.00 L 883.00 304.00 L 882.00 303.00 L 868.00 303.00 L 867.00 302.00 L 842.00 302.00 L 841.00 303.00 L 837.00 303.00 L 836.00 302.00 L 827.00 302.00 L 826.00 303.00 L 821.00 303.00 L 820.00 302.00 L 819.00 303.00 L 807.00 303.00 L 806.00 302.00 L 792.00 302.00 L 791.00 303.00 L 670.00 303.00 L 670.00 311.00 L 671.00 311.00 L 672.00 312.00 L 672.00 313.00 L 673.00 314.00 L 673.00 318.00 L 674.00 319.00 L 674.00 339.00 L 673.00 340.00 L 673.00 345.00 L 670.00 349.00 L 671.00 352.00 L 670.00 353.00 L 669.00 353.00 L 669.00 358.00 L 667.00 361.00 L 668.00 362.00 L 666.00 364.00 L 664.00 369.00 L 661.00 372.00 L 661.00 374.00 L 660.00 375.00 L 660.00 376.00 L 657.00 379.00 L 656.00 384.00 L 653.00 387.00 L 652.00 387.00 L 652.00 388.00 L 650.00 390.00 L 650.00 391.00 L 647.00 394.00 L 646.00 394.00 L 643.00 397.00 L 642.00 397.00 L 642.00 398.00 L 643.00 399.00 L 641.00 401.00 L 641.00 402.00 L 640.00 403.00 L 637.00 404.00 L 635.00 406.00 L 634.00 406.00 L 630.00 410.00 L 630.00 411.00 L 629.00 412.00 L 626.00 413.00 L 622.00 418.00 L 621.00 418.00 L 620.00 419.00 L 618.00 419.00 L 613.00 424.00 L 613.00 425.00 L 612.00 426.00 L 610.00 426.00 L 609.00 427.00 L 606.00 427.00 L 604.00 430.00 L 603.00 430.00 L 600.00 432.00 L 598.00 429.00 L 601.00 426.00 L 601.00 424.00 L 602.00 423.00 L 603.00 423.00 L 603.00 422.00 L 605.00 420.00 L 605.00 417.00 L 607.00 414.00 L 607.00 412.00 L 609.00 410.00 L 609.00 409.00 L 611.00 406.00 L 611.00 404.00 L 614.00 401.00 L 615.00 402.00 L 614.00 401.00 L 614.00 399.00 L 617.00 395.00 L 617.00 393.00 L 619.00 391.00 L 618.00 390.00 L 619.00 389.00 L 619.00 387.00 L 620.00 386.00 L 620.00 384.00 L 621.00 383.00 L 621.00 377.00 L 622.00 376.00 L 622.00 369.00 L 623.00 368.00 L 623.00 365.00 L 624.00 364.00 L 624.00 342.00 L 622.00 340.00 L 622.00 332.00 L 621.00 331.00 L 621.00 325.00 L 619.00 323.00 L 619.00 321.00 L 617.00 318.00 L 617.00 316.00 L 615.00 314.00 L 615.00 312.00 L 613.00 310.00 L 612.00 307.00 L 608.00 302.00 L 609.00 301.00 L 608.00 301.00 L 606.00 299.00 L 606.00 298.00 L 603.00 297.00 L 600.00 293.00 L 600.00 292.00 L 597.00 291.00 L 594.00 287.00 L 591.00 286.00 L 590.00 285.00 L 590.00 284.00 L 586.00 281.00 L 585.00 281.00 L 584.00 280.00 L 582.00 280.00 L 581.00 279.00 L 576.00 277.00 L 574.00 275.00 L 572.00 275.00 L 571.00 274.00 L 570.00 274.00 L 566.00 271.00 L 560.00 271.00 L 558.00 269.00 L 554.00 269.00 L 553.00 268.00 L 548.00 268.00 L 547.00 267.00 L 542.00 267.00 L 541.00 266.00 L 520.00 266.00 L 519.00 267.00 L 514.00 267.00 L 513.00 268.00 L 508.00 268.00 L 507.00 269.00 L 503.00 269.00 L 501.00 271.00 L 499.00 271.00 L 498.00 270.00 L 497.00 270.00 L 496.00 271.00 L 494.00 271.00 L 493.00 272.00 L 492.00 272.00 L 486.00 277.00 L 485.00 276.00 L 485.00 277.00 L 483.00 279.00 L 478.00 281.00 L 475.00 284.00 L 474.00 284.00 L 470.00 288.00 L 470.00 289.00 L 469.00 290.00 L 468.00 290.00 L 468.00 291.00 L 464.00 295.00 L 464.00 296.00 L 463.00 297.00 L 462.00 297.00 L 459.00 304.00 Z"/>
<path d="M 1019.00 486.00 L 1020.00 485.00 L 1021.00 486.00 L 1020.00 487.00 Z"/>
<path d="M 545.00 471.00 L 546.00 470.00 L 547.00 471.00 L 546.00 472.00 Z"/>
<path d="M 938.00 316.00 L 939.00 315.00 L 940.00 316.00 L 939.00 317.00 Z"/>
</g></svg>