<?xml version="1.0" encoding="UTF-8"?>
<svg xmlns="http://www.w3.org/2000/svg" version="1.1" viewBox="0 0 821.1 848.7">
  <defs>
    <style>
      .cls-1 {
        fill: #030303;
      }

      .cls-2 {
        fill: #0e0e0e;
      }
    </style>
  </defs>
  <!-- Generator: Adobe Illustrator 28.7.5, SVG Export Plug-In . SVG Version: 1.2.0 Build 176)  -->
  <g>
    <g id="Layer_1">
      <g>
        <path class="cls-2" d="M413.6,460.5c0-1.5-.1-3-.2-4.5-.6-1-1.1-2-1.7-3.7-3.4-2.1-6.8-3.4-10.1-4.8-1.3.5-2.5,1.4-3.8,1.4,1.3,0,2.5-.9,3.3-1.5-28.2,0-56-.1-83.5.3,1.5.7,2.7,1.3,4,1.3-1.2,0-2.5-.6-4.4-1.2-10.1-.5-14.6,5.1-17.5,13.3-11.4,32.2-22.7,64.5-34.5,96.5-13.6,37.3-27.7,74.4-41.6,111.6-2.1,5.6-4.4,11.2-6.6,16.8-.5,0-1.1,0-1.6,0-1.3-2.4-2.9-4.6-3.9-7.2-11.1-29.5-22.1-59-33-88.6-16.3-44-32.6-88.1-48.9-132.1-2.7-7.4-7.3-10.9-14.9-10.9-32.1.1-64.3.4-96.4.8-1.6,0-3.2,1.2-4.8,1.8-.3,58.1-.8,116.1-.9,174.2.1-58.1.6-116.1.6-174.1-1.4,2.9-3.4,5.7-3.4,8.5-.2,121.1-.1,242.2,0,363.3,0,1.7.6,3.5.9,5.2.8.3,1.7.5,2.5.8-.5.4-1,.8-1.8,1.5,2.2,1.5,4.7,2.8,7.2,3.6-.6-1.9-.9-4.3-1.8-5.3.9.9,1.2,3.4,2.1,5.6,20.6.7,40.9.7,61.2.6,12.6,0,13.9-3.9,13.8-13.5-.2-25.1,0-50.3,0-75.4,0-46.6,0-93.2,0-139.8-.2-.8-.5-1.5-.7-2.3.2.8.5,1.5.9,2.2.5-.2.7-.4.6-1-.3-.3-.6-.5-.8-.7.3.2.6.5,1.1.9,11.5,30.2,22.6,59.9,33.8,89.6,16.6,43.8,33.3,87.6,49.9,131.4,2.6,6.8,5.4,8.6,12.7,8.6,13,0,26,0,39,0,7,0,10.6-2.7,13.2-9.2,4-10.3,8.2-20.5,12.1-30.8,15.1-39.3,30.3-78.6,45.1-118,8.2-21.8,15.9-43.8,23.9-65.7l.8-7.7c-.3,2.6-.5,5.1-.5,7.5.8-1.4,1.3-2.6,2.1-4.5.6,2,1,3.2,1.3,4.5.2,0,.5,0,1.2,0,.5,0,.9,0,.9-.4,0,2.5.2,4.7.2,6.8,0-2.2-.1-4.3-.2-6.5,0,0-.4,0-.5,0-.2.6-.3,1.1-.4,2.5,0,63.1,0,125.3,0,187.5,0,9.1-.1,18.3-.1,27.5,0,0,0,0,0,0,0,0,0,0,0,0-.3,1.3,0,1.9.4,2.6,11.7,3.6,23.7,1.6,35.5,1.9-11.8-.3-23.8,1.7-35.4-1.6,3.5,1.4,6.8,3.3,10.2,3.3,20.6.3,41.3.2,61.9.1,1.2,0,2.5-.5,3.3-.9.1,0,.3,0,.4,0,6.3-1.2,7.9-3.4,7.9-9.8,0-120.9,0-241.8,0-362.7ZM330.5,821.9c0-.5,0-.9,0-1.4,0,.5,0,.9,0,1.4ZM401,832.2c.4,0,.8.1,1.2.2-.4,0-.8-.1-1.2-.2ZM399.6,832.1c.4,0,.9,0,1.3,0-.4,0-.9,0-1.3,0ZM403.1,832.5s0,0,0,0c0,0,0,0,0,0Z"/>
        <path class="cls-2" d="M328.4,612.4c-.5,70.2-.6,140.2-.5,210.1,0,1.6.9,3.2,1.4,4.8,0-9.1.2-18.3.2-27.4,0-62.2,0-124.4,0-187.1-.2-.5-.4-.6-1.1-.4Z"/>
        <path class="cls-2" d="M10.6,827.4c0,.8.2,1.2.6,1.6.8-.4,1.4-.8,1.9-1.2-.8-.3-1.7-.5-2.5-.4Z"/>
        <path class="cls-2" d="M411.8,452.6c.5,1.4,1,2.4,1.6,3.1-.5-1.4-1-2.4-1.6-3.1Z"/>
        <path class="cls-2" d="M329.5,612c0-1,.1-1.5-.2-2.1-.6,0-.8,0-1.2.3,0,.8,0,1.2.3,1.8.5.2.8.3,1,0Z"/>
      </g>
      <path class="cls-1" d="M812.2,447.1c-27.5,0-55,.1-82.5,0-5.4,0-8.9,2-11.5,6.9-26.1,50.1-52.4,100.2-78.6,150.3-.9,1.8-2,3.5-3.4,5.9-.9-1.5-1.4-2.1-1.7-2.7-12.7-23.6-25.4-47.2-38-70.9-14.1-26.7-28-53.4-41.9-80.2-2.6-4.9-5.8-8.5-11.6-8.6-11.1-.2-22.3-.4-33.4-.5-18.7-.1-37.3-.1-56-.2-7.3,0-9.3,3-6.1,9.4.7,1.3,1.3,2.7,2.1,3.9,26.3,43.7,52.7,87.3,78.9,131,18.8,31.4,37.4,63,55.9,94.6,2.2,3.8,3.7,8,5.5,12.1.6,1.2,1.7,2.4,1.7,3.6,0-1.2-1.1-2.4-1.7-3.1,0,25,0,49.6,0,74.2,0,17.4.1,34.9.6,52.2.7-1,1.3-1.9,1.3-2.8,0,.9-.6,1.8-1.3,3.2,1.4,6.7,3.9,8.6,10.6,8.6,22.7,0,45.5.2,68.2,0,7.3,0,11.7-2.4,12.3-9.8-.6-1.3-1.7-2.7-1.7-4,0,1.3,1.1,2.7,1.8,3.5,0-42.5,0-84.6-.5-126.5-.5,1-.9,1.9-1.1,2.8.3-.9.7-1.9,1.2-3,.5-.4.4-.9.4-.9-.1-.2-.2-.5-.3-.8,0,.2.2.4.4.5,0-.6,0-.9-.4-1.3,0-.1,0-.2,0-.4,23.3-38.9,46.2-77.5,68.9-116.1,12.5-21.2,24.6-42.6,37-63.9,10.7-18.4,21.5-36.7,32.1-55.1,4.2-7.2,1.3-11.8-7-11.8Z"/>
      <path class="cls-2" d="M1649.7,490.4c0-1.5-.1-3-.2-4.5-.6-1-1.1-2-1.7-3.7-3.4-2.1-6.8-3.4-10.1-4.8-1.3.5-2.5,1.4-3.8,1.4-25.4,0-50.8,0-76.3,0-1.2,0-2.5-.6-4.4-1.2-10.1-.5-14.6,5.1-17.5,13.3-11.4,32.2-22.7,64.5-34.5,96.5-13.6,37.3-27.7,74.4-41.6,111.6-2.1,5.6-4.4,11.2-6.6,16.8-.5,0-1.1,0-1.6,0-1.3-2.4-2.9-4.6-3.9-7.2-11.1-29.5-22.1-59-33-88.6-16.3-44-32.6-88.1-48.9-132.1-2.7-7.4-7.3-10.9-14.9-10.9-32.1.1-64.3.4-96.4.8-1.6,0-3.2,1.2-4.8,1.8-.3,58.1-.8,116.1-.9,174.2-.2,64.6,0,129.2,0,193.8,0,3.6-1.1,7.4,3.7,9.5,1.2.5,1.5,3.4,2.5,5.9,20.6.7,40.9.7,61.2.6,12.6,0,13.9-3.9,13.8-13.5-.2-25.1,0-50.3,0-75.4,0-46.6,0-93.2,0-139.8-.2-.8-.5-1.5-.7-2.3.5.3.9.6,1.8,1.4,11.5,30.2,22.6,59.9,33.8,89.6,16.6,43.8,33.3,87.6,49.9,131.4,2.6,6.8,5.4,8.6,12.7,8.6,13,0,26,0,39,0,7,0,10.6-2.7,13.2-9.2,4-10.3,8.2-20.5,12.1-30.8,15.1-39.3,30.3-78.6,45.1-118,8.2-21.8,15.9-43.8,23.9-65.7.3-2.6.5-5.1.8-7.7.7,0,1.3,0,2-.1,1,2.2,2,4.5,3,7.1,0,2.5.2,4.7.2,6.8,0,23.2,0,46.4,0,69.5h83c0-75.1,0-150.2,0-225.3Z"/>
      <g>
        <path class="cls-2" d="M737.7,327.9c-10.7-10.8-21.4-21.4-32.1-32.2-8.5-8.5-16.9-17-25.4-25.6.1-41.4.2-82.8.1-124.2,0-1.6-.9-3.2-1.4-4.8,0,9.1-.2,18.3-.2,27.4,0-9.1.1-18.3.1-27.5,0,0,0,0,0,0,0,0,0,0,0,0,.3-1.3,0-1.9-.4-2.6-11.7-3.6-23.7-1.6-35.5-1.9,11.8.3,23.8-1.7,35.4,1.6-3.5-1.4-6.8-3.3-10.2-3.3-20.6-.3-41.3-.2-61.9-.1-1.2,0-2.5.5-3.3.9-.1,0-.3,0-.4,0-6.3,1.2-7.9,3.4-7.9,9.8,0,12.9,0,25.9,0,38.8-13.5-13.5-27-27.1-40.4-40.6-14.7-14.7-29.2-29.6-43.9-44.3-28.1-28.2-56.2-56.3-84.5-84.4-6.6-6.5-15.3-6.8-22.5-1-3.5,2.8-6.7,5.9-9.9,9.1-23.7,23.9-47.3,47.9-71,71.7-23.5,23.6-47.1,47.1-70.6,70.7-51.7,51.9-103.3,103.9-154.9,155.9-23,23.2-46.1,46.2-69.1,69.4-5.6,5.7-11.3,11.4-15.9,17.8-4.6,6.5.5,15,8.7,15.5.8-.6,1.6-1.7,2.5-1.8-.8,0-1.6,1.1-2,1.8,11.1,0,21.8,0,32.4-.5-.5-.6-1-1.2-1.5-1.3.5.1,1,.7,1.9,1.4,2.9.4,5.3.4,7.7.3.8-.6,1.6-1.7,2.5-1.8-.8,0-1.6,1.1-2,1.8,10.8,0,21.2,0,31.4-.5-.6-.7-1.1-1.4-1.7-1.4.5,0,1,.6,2.1,1.4,18.9.4,37.3.4,55.7.3,1.3-1.6,2.7-2.1,4.2-2.1-1.4,0-2.7.5-3.7,2.1,3.1,0,5.8,0,8.4-.4-1.2-.6-2.3-1.2-3.4-1.5,1.2.3,2.4.9,3.8,1.6.9.4,1.3.3,1.8.3,1-.3,2-.5,3-.7-.9.2-1.8.5-2.6.8,1.9-.3,3.6-.6,5.1-1.2.3,0,.5,0,.8,0,5.4-2.7,11.2-4.9,15.3-8.9,22.7-22.3,45-44.9,67.5-67.4,25.5-25.6,51.2-51,76.6-76.7,28.2-28.5,56.2-57.2,84.2-85.9,2.3-2.3,4.1-2.3,6.2,0,2.3,2.6,4.7,5.2,7.2,7.6,62.3,62.5,124.6,125,186.9,187.6,10.9,11,21.5,22.2,32.4,33.2,5.7,5.8,11.4,11.7,20.4,11.8l.5-1.2c.2.2.3.5.9,1.1,15.2.3,29.9.2,44.6.2,1.1-1.6,2.4-2.2,3.7-2.1-1.2,0-2.4.5-3.3,2.2,2.8,0,5.2,0,7.5-.4-1.2-.8-2.5-1.4-3.6-1.7,1.2.2,2.6.9,4.1,1.7,26.9.4,53.3.3,79.6.3,1-.6,1.8-1.5,2.9-1.8-1,.2-1.9,1.2-2.4,1.8,4.3-.3,8.1-.6,11.8-1.3-.5-.8-.9-1.8-1.3-1.8.3,0,.8.9,1.5,1.8.3.4.7.2.7.2.6-.8,1.3-1.5,2.1-2.3-.7.8-1.3,1.6-1.7,2.3,1.3-1.2,2.3-2.4,3-3.5.1-.1.3-.3.5-.4,3.4-6.8,1.1-12-3.5-16.7-24.4-24.8-48.9-49.5-73.3-74.3Z"/>
        <path class="cls-2" d="M663.8,423.9c.4,0,.6,0,.7-.3-.2-.5-.3-.7-.5-1-.2.4-.3.8-.3,1.3Z"/>
        <path class="cls-2" d="M996.9,139.5c-.8.4-1.4.8-1.9,1.2.8.3,1.7.5,2.5.4,0-.8-.2-1.2-.6-1.6Z"/>
        <path class="cls-2" d="M596.3,515.9c-.5-1.4-1-2.4-1.6-3.1.5,1.4,1,2.4,1.6,3.1Z"/>
      </g>
    </g>
  </g>
</svg>